<svg xmlns="http://www.w3.org/2000/svg" preserveAspectRatio="xMidYMid" width="133" height="51" viewBox="0 0 133 51">
    <defs>
        <style>
            .cls-1{fill:#172636;fill-rule:evenodd}
        </style>
    </defs>
    <path d="M132.586 50.162c-.033.59-.397.598-.84.577-.477-.023-.692-.243-.652-.715.119-1.44.274-2.878.339-4.321.073-1.632.027-3.248-.637-4.811-1.557-3.663-6.988-3.813-9.159-1.641-1.218 1.218-1.738 2.61-1.757 4.247-.024 2.141-.03 4.284-.032 6.426-.001.605-.179.955-.895.917-.636-.034-.664-.409-.667-.871-.015-3.212-.05-6.425-.053-9.637-.015-16.922-.022-21.414-.031-38.336-.001-.348.009-.697.003-1.044-.009-.507-.03-.969.732-.95.689.018.77.365.772.931.028 6.211.094 2.861.113 9.072.032 10.309.038 17.749.055 28.057.001.128.013.254.028.517 2.744-2.911 6.634-2.972 9.324-1.676 2.457 1.186 3.628 3.365 3.743 5.906.11 2.44-.251 4.9-.386 7.352zm-26.614-8.341c1.323.289 2.662.507 3.976.829.943.232 1.889.511 2.774.902 1.442.638 2.221 1.751 2.109 3.371-.116 1.691-.959 2.908-2.579 3.457-3.178 1.076-6.21.506-9.118-.991-.513-.264-.445-.676-.241-1.101.282-.59.722-.56 1.216-.288 1.758.968 3.661 1.349 5.648 1.2.764-.058 1.54-.302 2.252-.598.904-.375 1.216-1.176 1.16-2.107-.052-.886-.566-1.458-1.41-1.657-1.818-.429-3.657-.771-5.474-1.203-1.164-.277-2.355-.608-3.062-1.667-1.072-1.605-.299-4.012 1.555-5.028 1.208-.661 2.24-.901 4.117-.893 1.564-.046 3.238.561 4.876 1.315.627.288.31.699.176 1.079-.193.547-.575.565-1.038.322-1.425-.747-2.964-1.105-4.557-.996-.923.062-1.869.316-2.724.672-.823.342-1.255 1.086-1.154 2.024.095.875.746 1.194 1.498 1.358zm4.5-11.892c-.595.004-.859-.183-.834-.779.014-.334-.04-.67-.074-1.158-2.15 1.827-4.499 2.496-7.133 1.916-1.491-.327-2.777-1.061-3.77-2.24-2.667-3.168-2.186-8.041.409-10.475 2.167-2.033 6.97-3.192 10.556.064 0-.517.016-.897-.004-1.275-.029-.548.255-.665.756-.668.508-.002.865.071.869.663.006.963.028 1.927.027 2.89-.006 3.372-.02 6.743-.026 10.114-.001.529-.058.942-.776.948zm-.838-8.183c-.132-1.395-.547-2.695-1.749-3.578-1.997-1.465-4.203-1.629-6.386-.589-2.048.976-2.894 2.795-2.918 4.997-.009 1.499.391 2.834 1.426 3.986 2.03 2.261 6.241 2.424 8.259.224 1.307-1.425 1.541-3.202 1.368-5.04zM97.779 36.144c.741-.016.759.453.758.959-.006 4.199-.011 8.398-.028 12.597-.002.526.063 1.092-.801 1.09-.651 0-.894-.224-.855-.842.027-.441.005-.884.005-1.464-.485.41-.837.731-1.213 1.022-3.288 2.534-10.449 1.977-11.709-4.304-.401-1.998-.337-3.987-.161-5.989.058-.666.124-1.332.218-1.994.065-.464-.096-1.114.735-1.073.898.045 1.045.247.962 1.253-.12 1.437-.262 2.874-.342 4.313-.083 1.476.035 2.924.606 4.332.402.991 1.034 1.768 1.942 2.276 2.032 1.139 4.15 1.212 6.225.134 1.92-.998 2.717-2.682 2.716-4.772-.001-2.193.018-4.387-.016-6.579-.011-.708.282-.944.958-.959zm-8.432-14.481c1.176.312 2.365.632 3.475 1.112 2.077.899 2.377 4.377.565 5.901-1.122.944-2.72 1.398-5.007 1.368-1.823.032-3.661-.558-5.421-1.47-.689-.358-.537-.819-.295-1.347.275-.598.639-.379 1.06-.169 1.756.874 3.613 1.347 5.59 1.19a8.304 8.304 0 0 0 1.987-.387c1.092-.372 1.597-1.119 1.563-2.101-.033-.933-.569-1.591-1.712-1.872-1.501-.369-3.029-.628-4.538-.97-.739-.168-1.491-.344-2.181-.642-2.27-.979-2.754-3.757-.937-5.442 1.869-1.734 4.161-1.995 6.553-1.527 1.132.222 2.217.691 3.314 1.075.499.175.641.503.381 1.013-.246.481-.52.711-1.084.467-1.826-.791-3.719-1.205-5.721-.853-.895.158-1.732.443-2.327 1.19-.77.967-.543 2.13.625 2.495 1.34.417 2.75.608 4.11.969zM79.22 39.819c-.995 0-1.52-.533-1.53-1.549-.01-1.142.504-1.648 1.682-1.652.921-.003 1.452.59 1.457 1.628.004 1.007-.574 1.573-1.609 1.573zm-1.865-9.872c-.768-.008-.808-.469-.802-1.017.004-.341.001-.682.001-1.023l-.202-.081c-.256.228-.496.478-.77.683-2.475 1.842-5.214 1.949-7.964.881-2.571-.999-3.732-3.173-4.121-5.757-.387-2.568-.039-5.126.245-7.681.062-.556.37-.724.891-.661.506.061.888.189.825.83-.156 1.597-.36 3.196-.387 4.798-.019 1.134.126 2.292.363 3.405.428 2.01 1.833 3.143 3.78 3.696 2.746.78 5.555-.269 6.724-2.697.424-.88.533-1.958.576-2.954.089-2.057.041-4.12.041-6.181 0-.568.082-.97.84-.967.732.003.847.336.844.943-.015 4.256-.014 8.512-.001 12.767.002.625-.114 1.024-.883 1.016zm-7.778 8.297c2.406 2.291 2.724 7.043.766 9.747-2.137 2.953-7.157 4.466-11.308 1.008-.027.241-.075.437-.067.63.028.67.002 1.22-.953 1.186-.986-.034-.713-.726-.716-1.214-.053-6.826-.084-13.652-.12-20.478-.001-.292 0-.584 0-1.078-1.841 1.673-3.892 2.275-6.209 2.033-2.389-.25-4.204-1.374-5.383-3.436-1.647-2.879-1.537-7.261 1.499-9.753 2.46-2.021 6.687-2.619 10.132.327v-5.274c.007-7.79.013-3.15.026-10.939.001-.426-.139-.913.615-.972.834-.065.931.334.934.997.031 7.148.097 4.733.123 11.881.034 9.262.041 15.656.061 24.919 0 .049.025.098.06.224 3.446-2.714 7.588-2.621 10.54.192zM57.256 22.011c-.133-2.383-1.431-4.098-3.589-4.749-2.361-.712-4.721.005-6.172 1.785-1.171 1.437-1.337 3.039-1.056 4.771.331 2.037 1.507 3.436 3.423 4.13 3.429 1.242 7.574-.628 7.396-5.215 0-.241.012-.482-.002-.722zm1.658 21.482c0 .24-.012.482.002.722.162 2.815 2.185 4.87 4.952 5.035 3.064.182 5.37-1.525 5.903-4.372.778-4.153-1.869-7.191-6.102-7.004-2.883.127-4.787 2.366-4.755 5.619zM39.597 23.259c-3.585.012-7.169.003-10.808.003.118 2.596 2.26 4.709 4.923 4.946 1.981.177 3.859-.062 5.426-1.423.516-.447.97-.485 1.459.068.343.388.329.682-.024 1.033-2.138 2.128-4.788 2.562-7.606 2.02-2.912-.56-4.948-2.248-5.777-5.143-.882-3.081.161-6.259 2.664-8.211 2.096-1.635 5.751-1.857 8.334-.348 1.894 1.106 3.014 2.836 3.282 5.009.276 2.241.355 2.038-1.873 2.046zm-5.375-6.235c-2.813.059-5.372 2.297-5.29 4.374h10.641c.014-2.455-2.48-4.434-5.351-4.374zM21.647 29.908c-.594-.038-.7-.361-.667-.867.135-2.054.345-4.11.339-6.164-.005-1.733-.46-3.387-1.776-4.693-1.828-1.814-5.662-1.443-7.055.714-.112.173-.125.443-.103.66.167 1.614.446 3.222.509 4.839.056 1.437-.1 2.885-.204 4.325-.038.531.168 1.281-.823 1.237-.857-.037-.988-.211-.958-1.365.055-2.111.24-4.229.129-6.331-.094-1.768-.565-3.495-2.269-4.567-2.086-1.312-5.016-.641-6.091 1.551a8.567 8.567 0 0 0-.825 3.212c-.125 2.161-.05 4.333-.026 6.501.007.67-.153 1.065-.941 1.066-.801.002-.855-.469-.855-1.056-.001-4.256.007-8.511-.027-12.765-.007-.78.361-.947 1.039-.973.755-.029.752.44.752.946v1.121c2.608-2.691 6.791-2.836 9.467.043.382-.323.752-.667 1.153-.972 2.349-1.787 7.385-1.745 9.261 1.6.893 1.591 1.447 3.267 1.439 5.04-.01 2.079-.285 4.157-.431 6.236-.049.702-.503.695-1.037.662zm54.766 6.308c.599.019.959.132.946.855-.039 2.163-.014 4.327-.014 6.491h-.009c0 2.11-.019 4.221.01 6.33.01.678-.223.969-.932.976-.723.006-.788-.445-.79-.949-.017-4.301-.021-8.602-.039-12.902-.003-.574.224-.82.828-.801z" class="cls-1"/>
</svg>
