<?xml version="1.0" encoding="UTF-8"?><!DOCTYPE svg PUBLIC "-//W3C//DTD SVG 1.1//EN" "http://www.w3.org/Graphics/SVG/1.1/DTD/svg11.dtd"><svg xmlns="http://www.w3.org/2000/svg"><symbol id="icon-facebook" viewBox="0 0 10 19">
    <title>
        facebook
    </title>
    <path d="M9.766.157v2.946H8.014c-.64 0-1.071.134-1.295.402-.223.268-.335.67-.335 1.205v2.11h3.27l-.435 3.303H6.384v8.471H2.97v-8.47H.123V6.82H2.97V4.387c0-1.384.387-2.457 1.161-3.22C4.904.404 5.934.023 7.222.023c1.093 0 1.941.045 2.544.134z" fill-rule="evenodd"/>
</symbol><symbol id="icon-logo-meduzabrush" viewBox="0 0 135 54">
    <style>
        .st0{fill:#fff}
    </style>
    <switch>
        <g>
            <path class="st0" d="M133.6 51.2c0 .6-.4.6-.8.6-.5 0-.7-.2-.7-.7.1-1.4.3-2.9.3-4.3.1-1.6 0-3.3-.6-4.8-1.6-3.7-7-3.8-9.2-1.6-1.2 1.2-1.7 2.6-1.8 4.3v6.4c0 .6-.2 1-.9.9-.6 0-.7-.4-.7-.9 0-3.2-.1-6.4-.1-9.6V3.1v-1c0-.5 0-1 .7-.9.7 0 .8.4.8.9 0 6.2.1 2.9.1 9.1 0 10.3 0 17.8.1 28.1v.5c2.7-2.9 6.6-3 9.3-1.7 2.5 1.2 3.6 3.4 3.7 5.9.3 2.3-.1 4.7-.2 7.2zM107 42.8c1.3.3 2.7.5 4 .8.9.2 1.9.5 2.8.9 1.4.6 2.2 1.8 2.1 3.4-.1 1.7-1 2.9-2.6 3.5-3.2 1.1-6.2.5-9.1-1-.5-.3-.4-.7-.2-1.1.3-.6.7-.6 1.2-.3 1.8 1 3.7 1.4 5.6 1.2.8-.1 1.5-.3 2.3-.6.9-.4 1.2-1.2 1.2-2.1-.1-.9-.6-1.5-1.4-1.7-1.8-.4-3.7-.8-5.5-1.2-1.2-.3-2.4-.6-3.1-1.7-1.1-1.6-.3-4 1.6-5 1.2-.7 2.2-.9 4.1-.9 1.6 0 3.2.6 4.9 1.3.6.3.3.7.2 1.1-.2.5-.6.6-1 .3-1.4-.7-3-1.1-4.6-1-.9.1-1.9.3-2.7.7-.8.3-1.3 1.1-1.2 2 0 1 .6 1.3 1.4 1.4zm4.5-11.9c-.6 0-.9-.2-.8-.8 0-.3 0-.7-.1-1.2-2.2 1.8-4.5 2.5-7.1 1.9-1.5-.3-2.8-1.1-3.8-2.2-2.7-3.2-2.2-8 .4-10.5 2.2-2 7-3.2 10.6.1v-1.3c0-.5.3-.7.8-.7s.9.1.9.7v13c-.2.6-.2 1-.9 1zm-.9-8.1c-.1-1.4-.5-2.7-1.7-3.6-2-1.5-4.2-1.6-6.4-.6-2 1-2.9 2.8-2.9 5 0 1.5.4 2.8 1.4 4 2 2.3 6.2 2.4 8.3.2 1.3-1.4 1.5-3.2 1.3-5zM98.8 37.2c.7 0 .8.5.8 1v12.6c0 .5.1 1.1-.8 1.1-.7 0-.9-.2-.9-.8v-1.5c-.5.4-.8.7-1.2 1-3.3 2.5-10.4 2-11.7-4.3-.4-2-.3-4-.2-6 .1-.7.1-1.3.2-2 .1-.5-.1-1.1.7-1.1.9 0 1 .2 1 1.3-.1 1.4-.3 2.9-.3 4.3-.1 1.5 0 2.9.6 4.3.4 1 1 1.8 1.9 2.3 2 1.1 4.1 1.2 6.2.1 1.9-1 2.7-2.7 2.7-4.8v-6.6c0-.7.3-.9 1-.9zm-8.5-14.5c1.2.3 2.4.6 3.5 1.1 2.1.9 2.4 4.4.6 5.9-1.1.9-2.7 1.4-5 1.4-1.8 0-3.7-.6-5.4-1.5-.7-.4-.5-.8-.3-1.3.3-.6.6-.4 1.1-.2 1.8.9 3.6 1.3 5.6 1.2.7-.1 1.4-.2 2-.4 1.1-.4 1.6-1.1 1.6-2.1 0-.9-.6-1.6-1.7-1.9-1.5-.4-3-.6-4.5-1-.7-.2-1.5-.3-2.2-.6-2.3-1-2.8-3.8-.9-5.4 1.9-1.7 4.2-2 6.6-1.5 1.1.2 2.2.7 3.3 1.1.5.2.6.5.4 1s-.5.7-1.1.5c-1.8-.8-3.7-1.2-5.7-.9-.9.2-1.7.4-2.3 1.2-.8 1-.5 2.1.6 2.5 1.1.3 2.5.5 3.8.9zM80.2 40.8c-1 0-1.5-.5-1.5-1.5 0-1.1.5-1.6 1.7-1.7.9 0 1.5.6 1.5 1.6-.1 1.1-.6 1.6-1.7 1.6zM78.4 31c-.8 0-.8-.5-.8-1v-1c-.1 0-.1-.1-.2-.1-.3.2-.5.5-.8.7-2.5 1.8-5.2 1.9-8 .9-2.6-1-3.7-3.2-4.1-5.8s0-5.1.2-7.7c.1-.6.4-.7.9-.7.5.1.9.2.8.8-.2 1.6-.4 3.2-.4 4.8 0 1.1.1 2.3.4 3.4.4 2 1.8 3.1 3.8 3.7 2.7.8 5.6-.3 6.7-2.7.4-.9.5-2 .6-3 .1-2.1 0-4.1 0-6.2 0-.6.1-1 .8-1 .7 0 .8.3.8.9v12.8c.1.8 0 1.2-.7 1.2zm-7.8 8.3c2.4 2.3 2.7 7 .8 9.8-2.1 3-7.2 4.5-11.3 1 0 .2-.1.4-.1.6 0 .7 0 1.2-1 1.2s-.7-.7-.7-1.2c-.1-6.8-.1-13.7-.1-20.5v-1.1c-1.8 1.7-3.9 2.3-6.2 2-2.4-.3-4.2-1.4-5.4-3.4-1.6-2.9-1.5-7.3 1.5-9.8 2.5-2 6.7-2.6 10.1.3v-5.3V2c0-.4-.1-.9.6-1 .8-.1.9.3.9 1 0 7.2.1 4.7.1 11.9 0 9.3 0 15.7.1 24.9 0 0 0 .1.1.2 3.5-2.6 7.6-2.5 10.6.3zM58.3 23c-.1-2.4-1.4-4.1-3.6-4.8-2.4-.7-4.7 0-6.2 1.8-1.2 1.4-1.3 3-1.1 4.8.3 2 1.5 3.4 3.4 4.1 3.4 1.2 7.6-.6 7.4-5.2.1-.2.1-.4.1-.7zm1.6 21.5v.7c.2 2.8 2.2 4.9 5 5 3.1.2 5.4-1.5 5.9-4.4.8-4.2-1.9-7.2-6.1-7-2.9.2-4.8 2.5-4.8 5.7zM40.6 24.3H29.8c.1 2.6 2.3 4.7 4.9 5 2 .2 3.9-.1 5.4-1.4.5-.4 1-.5 1.5.1.3.4.3.7 0 1-2.1 2.1-4.8 2.6-7.6 2-2.9-.6-4.9-2.3-5.8-5.1-.9-3.1.2-6.3 2.7-8.2 2.1-1.6 5.8-1.9 8.3-.3 1.9 1.1 3 2.8 3.3 5 .2 2.1.3 1.9-1.9 1.9zM35.2 18c-2.8.1-5.4 2.3-5.3 4.4h10.6c.1-2.4-2.4-4.4-5.3-4.4zM22.6 30.9c-.6 0-.7-.4-.7-.9.1-2.1.3-4.1.3-6.2 0-1.7-.5-3.4-1.8-4.7-1.8-1.8-5.7-1.4-7.1.7-.1.2-.1.4-.1.7.2 1.6.4 3.2.5 4.8.1 1.4-.1 2.9-.2 4.3 0 .5.2 1.3-.8 1.2-.9 0-1-.2-1-1.4.1-2.1.2-4.2.1-6.3-.1-1.8-.6-3.5-2.3-4.6-2.1-1.3-5-.6-6.1 1.6-.5 1-.8 2.1-.8 3.2-.1 2.2 0 4.3 0 6.5 0 .7-.2 1.1-.9 1.1-.6.1-.7-.3-.7-.9V17.2c0-.8.4-.9 1-1 .8 0 .8.4.8.9v1.1c2.6-2.7 6.8-2.8 9.5 0 .4-.3.8-.7 1.2-1 2.3-1.8 7.4-1.7 9.3 1.6.9 1.6 1.4 3.3 1.4 5 0 2.1-.3 4.2-.4 6.2-.2 1-.6 1-1.2.9zm54.8 6.3c.6 0 1 .1.9.9v12.8c0 .7-.2 1-.9 1s-.8-.4-.8-.9V38.1c0-.6.2-.9.8-.9z"/>
        </g>
    </switch>
</symbol></svg>